<?xml version="1.0" encoding="UTF-8"?>
<svg id="Layer_1" data-name="Layer 1" xmlns="http://www.w3.org/2000/svg" viewBox="0 0 1000 230">
  <defs>
    <style>
      .cls-1 {
        fill: #fff;
      }
    </style>
  </defs>
  <g>
    <path class="cls-1" d="M282.11,74.34c17.42,0,33.33,6.82,39.89,17.93h1.01c-.25-1.77-.51-4.29-.51-11.36V19.8h34.84v189.37h-32.32v-5.81c0-5.55.25-9.34.51-11.87h-1.01c-8.33,13.89-24.74,21.71-43.93,21.71-37.12,0-63.37-28.53-63.37-69.43s27.27-69.43,64.89-69.43ZM323.77,143.27c0-22.47-14.9-38.13-35.6-38.13s-35.35,15.65-35.35,38.13,14.9,38.38,35.35,38.38,35.6-15.65,35.6-38.38Z"/>
    <path class="cls-1" d="M448.49,74.34c19.95,0,35.35,8.58,42.17,20.7h1.01c-.25-2.02-.5-4.54-.5-11.61v-5.05h32.32v130.79h-32.32v-6.06c0-5.81.25-9.34.5-12.12h-1.01c-7.57,13.63-23.73,22.22-43.68,22.22-37.37,0-63.63-28.53-63.63-69.43s27.77-69.43,65.14-69.43ZM489.9,143.27c0-22.47-14.9-38.13-35.6-38.13s-35.35,15.65-35.35,38.13,14.9,38.63,35.35,38.63,35.6-15.91,35.6-38.63Z"/>
    <path class="cls-1" d="M563.12,108.67h-12.37v-30.3h12.37v-33.33h35.35v33.33h30.3v30.3h-30.3v69.69h26.51v30.8h-61.86v-100.49Z"/>
    <path class="cls-1" d="M707.8,74.34c19.95,0,35.35,8.58,42.17,20.7h1.01c-.25-2.02-.5-4.54-.5-11.61v-5.05h32.32v130.79h-32.32v-6.06c0-5.81.25-9.34.5-12.12h-1.01c-7.57,13.63-23.73,22.22-43.68,22.22-37.37,0-63.63-28.53-63.63-69.43s27.77-69.43,65.14-69.43ZM749.21,143.27c0-22.47-14.9-38.13-35.6-38.13s-35.35,15.65-35.35,38.13,14.9,38.63,35.35,38.63,35.6-15.91,35.6-38.63Z"/>
  </g>
  <g>
    <path class="cls-1" d="M796.01,38.78h17.35v8.47h-8.2v52.86h8.2v8.61h-17.35V38.78Z"/>
    <path class="cls-1" d="M838.18,89.06h-22.94l8.27-42.92h11.9l-5.95,31.66h8.71v-16.93h12.34v16.93h6.02v11.26h-6.02v12.29h-12.34v-12.29Z"/>
    <path class="cls-1" d="M858.8,53.5l27.73-8.83v56.69h-12.77v-40.57l-12.12,3.68-2.83-10.97Z"/>
    <path class="cls-1" d="M895.89,81.26c-.15-5.08-.15-10.23,0-15.17.29-12.52,8.93-21.13,21.34-21.13s20.98,8.61,21.34,21.13c.15,4.93.15,10.09,0,15.17-.36,12.52-8.93,21.28-21.34,21.28s-21.05-8.76-21.34-21.28ZM908.88,64.99c-.29,5.74-.29,11.63,0,17.3.29,5.15,3.27,8.69,8.35,8.69s8.06-3.53,8.35-8.69c.29-5.82.29-11.71,0-17.3-.29-5.08-3.27-8.61-8.35-8.61s-8.06,3.53-8.35,8.61Z"/>
    <path class="cls-1" d="M942.56,108.72v-8.61h8.2v-52.86h-8.2v-8.47h17.35v69.94h-17.35Z"/>
  </g>
</svg>